<mxfile host="app.diagrams.net" modified="2024-05-18T13:25:47.587Z" agent="Mozilla/5.0 (Macintosh; Intel Mac OS X 10_15_7) AppleWebKit/537.36 (KHTML, like Gecko) Chrome/124.0.0.0 Safari/537.36" version="24.4.4" etag="LmwtuL6lzocN8Nz4Wzy9" type="github">
  <diagram name="Page-1" id="uuNoLhTud4g0LJGdiidq">
    <mxGraphModel>
      <root>
        <mxCell id="0" />
        <mxCell id="1" parent="0" />
      </root>
    </mxGraphModel>
  </diagram>
</mxfile>
